<?xml version="1.0" encoding="UTF-8"?>
<!DOCTYPE svg PUBLIC "-//W3C//DTD SVG 1.1//EN" "http://www.w3.org/Graphics/SVG/1.1/DTD/svg11.dtd">
<svg version="1.1" id="Layer_1" xmlns="http://www.w3.org/2000/svg" xmlns:xlink="http://www.w3.org/1999/xlink" x="0px" y="0px" viewBox="0 0 2608.108 1357.991" enable-background="new 0 0 2608.108 1357.991" xml:space="preserve">
<g>
	<path d="M1420.378,37.083c7.673-8.287,22.418-7.538,25.601-2.938c7.665,12.146-0.807,19.362,4.095,27.345   c4.503,3.052,10.542,2.287,15.345,4.703c5.103,3.745,7.962,9.642,12.515,13.951c4.103,3.624,6.132,8.991,7.212,14.237   c3.201,12.872,4.557,13.497,5.632,25.83c0.079,2.13,2.151,3.588,2.13,5.746c1.567,13.627-8.804,28.177-7.747,35.45   c3.688,1.029,7.154,2.78,10.95,3.424c4.476,1.154,12.395,2.269,10.756,6.626c-2.75,6.373-10.853,30.678-14.187,36.108   c-8.369-1.051-16.26-5.132-24.808-5.103c-0.515,4.51,0.972,8.877,1.143,13.365c0.472,6.633,3.974,12.729,3.659,19.441   c-0.357,2.63-1.179,5.21-0.965,7.891c0.193,3.709-0.472,7.455,0.136,11.143c1.444,6.232-0.357,12.601,0.15,18.912   c-0.172,2.959,1.408,5.625,1.522,8.541c0.154,9.615,0.248,14.036-6.74,21.156c-5.768,1.179-12.258-0.143-16.71-4.11   c-1.165-0.743-0.893-2.18-0.729-3.323c2.129-10.101-1.533-11.244,1.694-19.734c1.051-3.595-0.193-7.312-0.2-10.921   c1.465-5.775-0.779-11.55-0.936-17.339c-0.1-4.088,1.172-8.048,1.458-12.1c-0.229-2.466-1.901-4.51-2.316-6.933   c-1.88-10.435-2.53-21.013-3.588-31.541c-2.301-1.479-4.974-1.873-7.647-1.637c0,0-1.721,48.779-1.415,60.823   c1.065,8.069,1.408,16.539-1.351,24.329c-1.616,3.179-31.091,11.001-32.141,10.992c-4.31-0.543-7.941-3.216-12.186-4.002   c-2.037-3.316,0.057-7.062,2.544-9.434c1.437-1.622,3.602-2.158,5.468-3.138c4.882-2.244,7.598-7.219,12.007-10.12   c7.801-5.641,4.408-25.307,4.739-34.378c0.029-5.017,0.865-10.135-0.472-15.052c-8.641-33.886,10.256-22.568-27.674-31.005   c-18.755-4.539-54.834-8.537-60.373-9.57c-4.131-0.093-8.27-0.5-12.2-1.823c1.198-4.314,14.224-27.622,15.724-30.526   c1.391-2.398,1.758-8.247,9.227-7.705c3.288,0.236,6.19-1.837,9.463-1.765c3.731-0.021,7.219-1.458,10.75-2.487   c0.686-2.259,2.394-4.088,2.723-6.461c0.315-1.694,0.729-3.416,1.908-4.739c2.194-2.816,3.702-6.354,6.919-8.198   c1.88-1.029,3.266-2.659,4.603-4.303c-0.4-1.78-0.758-3.667-0.286-5.468c0.867-1.008,24.465-25.077,38.574-33.042   c3.895-1.858,2.58-6.74,2.995-10.206c-0.236-4.86,1.429-9.47,1.915-14.244C1419.528,41.521,1418.541,38.848,1420.378,37.083    M1390.167,117.711c-2.33,0.5-3.116,3.066-4.789,4.481c-2.495,2.116-3.681,5.318-6.197,7.39c-6.171,5.712-10.031,6.811-10.8,10.378   c10.056,2.552,20.806,1.651,30.533,5.596c2.135,0.564,13.86,3.179,14.38,0.922c0.851-2.444,1.051-5.046,1.694-7.54   c0.829-2.666-2.101-4.539-2.373-7.076c-1.129-6.125-2.637-12.2-5.082-17.947C1401.409,112.979,1395.87,116.11,1390.167,117.711    M1466.707,121.163c-0.807,6.125-2.702,12.272-1.308,18.476c-0.829,5.918-0.55,12.036,1.151,17.782   c1.501,0.029,3.081-0.272,3.795-1.794c2.123-2.173,1.294-5.339,1.872-8.048c0.965-4.531,0.472-9.177,0.565-13.773   c-0.078-2.494,1.129-4.753,1.98-7.033c-2.552-1.765-4.703-3.995-7.04-5.997C1467.464,120.87,1466.964,121.07,1466.707,121.163z"/>
	<path d="M1040.808,107.698c1.002,0.669,50.526,31.36,63.089,37.016c26.83,10.966,99.91,57.119,103.95,58.965   c1.898,0.973,22.042,11.531,25.823,16.625c-4.603,6.647-12.708,8.791-19.555,12.25c-1.001,0.52-26.867,13.091-31.748,14.716   c-1.758,0.672-3.524-0.1-5.003-1.008c-30.015-17.396-179.76-99.883-192.647-109.06c0.172-3.066-2.037-5.146-3.474-7.562   c0.749-0.868,19.29-8.83,23.014-10.521C1038.1,105.934,1032.428,103.123,1040.808,107.698z"/>
	<path d="M747.249,141.711c5.775,2.995,11.257,6.633,17.246,9.27c5.425,2.873,11.121,5.21,16.575,8.034   c-0.6,5.322-1.104,3.632-11.664,9.048c-0.445,0.221-35.112,15.351-35.286,15.424c-2.859,1.194-5.825-0.336-8.355-1.615   c-5.866-3.216-24.878-11.274-29.046-14.566c-1.465-1.236-1.951-4.388,0.4-4.982C742.375,142.862,742.874,142.247,747.249,141.711z"/>
	<path d="M915.51,192.257c21.714,23.232,27.925,25.473,26.931,30.74c-1.98,2.837-5.932,2.523-8.934,3.388   c-6.79,0.865-13.315,2.952-20.02,4.231c-32.012,6.279-22.665,7.07-32.048-0.779c-6.231-6.627-19.674-19.302-22.514-23.314   c-2.155-2.867,0.228-4.1,24.772-10.699C914.916,187.555,911.218,188.188,915.51,192.257z"/>
	<path d="M729.166,207.009c2.842,0.405,27.692,4.447,39.889,7.39c1.815,0.572,4.681,1.229,4.288,3.731   c-0.908,3.109-3.781,5.032-5.768,7.426c-3.538,3.459-12.558,15.481-16.146,17.468c-3.278,0.678-17.186-2.17-18.44-2.58   c-5.957-1.913-29.879-4.383-34.536-7.683c-3.81-3.224,3.35-7.05,14.931-19.991C721.158,204.651,718.939,205.348,729.166,207.009z"/>
	<path d="M610.779,238.192c22.716,5.043,35.99,8.722,47.344,12.272c0.071,2.63-0.479,5.603-2.723,7.262   c-39.279,29.257-35.109,30.559-43.32,27.167c-14.416-4.36-29.054-7.991-43.405-12.558c0.1-1.136-0.336-2.566,0.772-3.331   C609.967,236.822,608.826,237.717,610.779,238.192z"/>
	<path d="M1563.352,242.159c0.743-1.572,2.559-0.593,3.831-0.436c10.728,2.787,21.785,4.038,32.542,6.74   c6.175,1.408,12.493,2.166,18.847,1.837c0.536,1.472,1.215,3.181,0.465,4.71c-3.21,5.501-16.754,21.75-20.656,28.132   c-4.848,0.365-49.588-7.587-53.99-9.37c-2.28-0.636-1.98-4.017-0.665-5.468c3.874-4.924,7.833-9.792,11.486-14.895   C1557.849,249.606,1561.258,246.34,1563.352,242.159z"/>
	<path d="M1027.329,255.853c4.357-4.577,3.493-3.983,16.439-1.751c17.628,3.462,78.241,14.695,78.241,14.695   c163.333,32.175,168.411,28.539,169.04,33.006c-0.473,1.001-29.251,38.778-32.084,39.925c-3.416,0.447,0.73,1.339-72.166-11.914   c-5.786-0.657-14.069-4.402-17.139-0.958c-4.288,4.817-7.783,10.271-12.143,15.016c-0.893,0.922-1.351,2.13-1.386,3.402   c8.469,2.473,32.838,5.605,41.211,8.198c0.051,3.878-12.296,16.053-14.295,21.356c3.581,1.558,7.54,1.68,11.307,2.552   c25.162,3.995,29.754,7.228,32.334,2.909c1.541-2.339,12.544-16.417,13.401-17.268c3.731-2.502,8.234-0.486,12.25,0.029   c5.496,0.557,10.778,2.251,16.246,3.038c5.861,1.479,12.25,1.329,17.582,4.496c-2.492,6.421-12.973,15.176-13.716,20.62   c2.165,0.898,28.576,5.578,29.59,5.725c66.097,12.051,55.55,10.707,60.53,5.653c3.466-4.889,7.304-9.52,10.606-14.53   c4.267-0.465,8.527-0.007,12.644,1.237c2.409,0.014,4.481,1.551,6.94,1.086c5.046,1.058,10.142,2.094,15.281,2.652   c0.329,0.279,0.994,0.836,1.322,1.115c6.146-1.433,3.048,1.319,8.377,0.15c0.45,0.872,0.915,1.737,1.415,2.602   c-3.366,5.375-7.898,9.87-11.307,15.209c-2.176,3.907-4.107,3.038-45.85-3.617c-2.08-0.428-1.981-0.485-17.561,20.262   c-5.695,8.709-14.36,17.127-14.559,22.299c10.306,1.994,20.756,3.223,31.119,4.924c10.433,1.474,10.114,2.821,15.803-4.924   c2.651-3.952,5.668-7.64,8.376-11.557c1.251-1.758,3.102-3.495,5.446-3.216c15.6,1.295,37.035,6.581,42.712,5.632   c4.421-3.276,22.067-29.796,29.368-38.559c1.915-2.13,4.338-3.81,5.854-6.297c2.859-4.217,6.69-7.612,9.777-11.636   c1.765-2.03,3.131-4.56,5.546-5.911c57.282,7.718,82.592,13.429,87.282,12.265c3.509-2.537,5.353-6.633,7.855-10.056   c1.751-3.259,5.396-5.661,5.518-9.634c-4.886-1.622-30.912-4.397-42.248-7.59c-0.35-2.787,2.066-4.589,3.595-6.561   c7.723-10.583,8.644-15.765,15.381-14.38c0.965,0.185,124.641,19.676,124.641,19.676c2.023,0.443,4.824,0.15,5.911,2.359   c-0.655,3.358-9.396,13.83-11.914,19.884c5.083,1.783,37.848,7.087,42.884,6.411c1.787-1.44,12.36-17.468,13.022-18.469   c2.305-3.553,11.197-0.194,37.202,3.531c3.395,0.407,6.868,0.879,9.985,2.401c-0.736,5.397-67.348,99.678-70.951,101.827   c-7.958,1.158-38.121-4.816-44.821-4.86c-2.137-0.164-3.209,2.094-4.388,3.488c-4.294,7.151-10.16,13.177-10.206,17.218   c13.001,3.438,39.567,4.1,43.827,7.934c-2.509,4.951-26.341,41.218-27.01,42.219c-1.565,2.63-4.996,3.152-7.762,2.594   c-11.199-2.259-35.439-4.032-41.847-7.026c0.336-3.888,3.995-6.175,5.596-9.52c2.058-4.253,6.668-7.433,6.94-12.415   c-4.736-1.156-36.74-6.39-44.327-5.846c-16.928,22.907-12.023,22.244-23.786,20.777c-1.991-0.131-34.337-4.896-35.736-5.067   c-2.416-0.379-3.967,1.63-5.175,3.359c-3.745,4.903-7.276,9.97-10.542,15.202c-0.736,1.001-0.693,2.266-0.786,3.445   c86.481,12.667,83.115,11.539,91.006,13.816c0.189,5.973-12.337,16.778-12.422,22.6c7.115,1.536,41.324,6.255,42.326,6.347   c6.624,0.357,13.613-21.972,19.998-21.899c11.752,0.033,38.14,6.413,45.449,5.503c3.302-3.03,5.489-7.026,7.819-10.807   c1.737-3.173,4.088-5.947,6.032-8.998c2.935-4.772,11.437-0.037,54.341,4.989c67.801,10.744,93.574,9.449,90.82,14.923   c-3.53,6.991-12.117,17.194-11.028,19.734c3.589,1.79,35.528,4.831,36.53,4.91c13.452,2.437,11.462-1.428-2.151,21.792   c-3.457,4.134,9.876,3.47,27.01,6.189c8.604,1.489,19.916,0.932,18.983,4.596c-1.372,3.852-4.61,6.661-6.218,10.414   c-1.522,3.638-4.574,6.676-5.11,10.678c1.524,0.361,37.49,5.007,42.712,5.482c-13.265,24.594-26.952,48.959-40.346,73.481   c-2.78-0.337-43.9-5.041-47.629-7.941c-0.876-1.559,11.101-19.388,11.686-22.621c-6.511-2.706-88.424-12.942-97.246-12.25   c-4.21,5.561-6.926,12.072-11.085,17.661c-0.786,1.351-2.301,2.995-1.408,4.631c10.925,3.229,38.049,3.844,46.665,7.29   c-0.878,4.742-10.852,20.31-11.4,21.313c-3.281,5.872-7.087,3.222-25.787,1.322c-23.189-2.393-28.025-3.266-26.474-6.411   c1.243-3.845,10.577-16.585,12.451-22.185c-4.21-1.737-8.82-1.258-13.208-1.987c-44.978-4.83-27.285-11.103-50.488,22.157   c-1.465,2.394-2.13,5.246-4.081,7.34c-0.376,0.411-8.595,14.259-8.848,14.752c-1.329,2.875,7.426,3.189,11.25,3.674   c0.756,0.109,92.463,12.213,93.465,12.293c-1.49,3.932-12.494,23.307-15.124,26.581c-2.206,0.192-54.757-7.222-79.628-9.906   c-21.61-3.357-29.112-2.811-27.46-6.59c2.974-6.413,12.433-19.048,12.508-23.229c-3.488-1.144-7.176-1.279-10.778-1.68   c-33.828-4.506-35.976-5.888-37.709-2.38c-13.138,21.003-12.568,22.325-16.868,23.036c-10.922-0.441-114.639-15.005-118.201-15.645   c-25.399-3.233-28.097-3.923-30.068-1.086c-4.875,7.104-9.763,14.23-13.716,21.892c2.912,1.922-4.119,0.388,40.268,6.861   c2.087,0.414,4.696,0.007,6.075,2.044c0.659,3.444-21.648,35.596-26.08,43.641c-1.658,3.588-3.824,7.097-7.09,9.427   c-6.989,1.824-35.51-5.162-47.579-5.082c-4.387-0.124-5.162,5.006-14.73,19.176c-1.236,2.058-3.466,4.21-2.373,6.826   c17.492,3.605,41.11,6.074,45.835,8.026c-0.086,1.601,0.021,3.366-1.094,4.667c-2.173,2.93-3.473,6.404-5.739,9.27   c-3.145,4.052-4.531,9.584-8.97,12.536c-5.95,3.745-130.749-20.603-146.397-22.45c-1.773-0.479-4.996-0.786-4.646-3.302   c1.401-3.231,3.859-5.846,5.789-8.77c2.945-4.453,6.075-8.777,8.777-13.387c2.355-4.344,6.641-3.12,30.762,1.279   c29.362,3.924,14.57,13.888,54.819-46.65c0.543-0.986,0.193-2.108,0.107-3.123c-9.41-2.098-29.18-4.689-38.745-6.511   c-2.452-0.164-5.175-1.222-7.455,0.093c-2.695,2.466-3.988,6.004-6.404,8.705c-2.444,4.367-6.147,7.905-8.162,12.536   c-3.242,7.709-15.083,0.788-69.021-6.783c-14.828-3.186-32.391-4.099-32.441-7.562c1.16-3.833,34.257-49.839,35.257-50.46   c7.377-1.513,41.762,7.432,48.816,6.004c2.538-1.899,29.998-43.363,30.748-44.363c1.201-1.837,3.188-3.617,2.509-6.039   c-13.68-2.208-27.438-3.917-41.068-6.425c-3.231-0.715-5.625,2.116-7.49,4.303c-11.515,15.296-11.39,21.52-21.378,19.598   c-3.048-0.681-36.867-5.751-40.21-5.989c-1.837,0.298,2.265-5.699-53.562,72.802c-4.403,6.127-9.984,2.497-14.373,2.008   c-16.885-2.267-77.012-13.953-85.488-14.616c-3.412,2.492-13.64,17.893-16.832,21.721c-0.7,0.772-0.672,1.844-0.808,2.823   c5.154,1.94,163.171,29.97,188.237,33.635c8.673,1.694,3.214,5.618,1.487,8.791c-0.918,1.577-25.071,36.808-31.369,44.42   c-2.587,2.394-6.404,2.094-9.57,1.286c-1.001-0.206-36.975-7.141-41.261-6.69c-2.602,1.508-4.002,4.331-5.746,6.668   c-11.467,14.925-11.801,16.525-11.714,18.376c14.125,4.557,40.639,7.135,45.564,9.849c0.65,0.8,0.908,1.965,0.2,2.845   c-0.83,1.488-12.352,17.583-13.723,19.998c-5.609,8.338-4.693,3.709-72.916-7.926c-11.55-2.928-28.493-4.992-31.098-7.669   c-0.407-2.037,1.651-3.474,2.473-5.167c2.053-2.714,34.042-45.989,34.929-46.629c7.818-3.211,42.327,8.547,50.238,6.804   c3.668-2.887,11.902-16.143,16.017-21.263c4.633-4.92-5.791-4.573-34.035-10.314c0,0-25.838-4.093-32.885-5.732   c-5.728-0.949-23.203-5.077-27.917-3.81c-2.208,1.908-3.702,4.481-5.482,6.761c-40.888,52.761-28.053,44.489-47.951,41.847   c-3.264-0.431-26.929-5.351-33.313-5.925c-2.616-0.5-4.045,2.13-5.453,3.838c-2.909,4.424-6.711,8.141-9.735,12.472   c-3.009,3.281-5.282,8.705-10.571,8.262c-7.656-1.005-38.929-6.971-42.898-8.105c-3.56-1.429-4.024-1.317-0.179-6.618   c4.174-6.011,9.241-11.328,13.487-17.289c1.73-2.694,5.31-3.431,8.262-2.673c1,0.232,39.285,7.457,42.748,7.426   c4.439-1.604,17.642-20.514,19.205-23.136c-1.794-2.301-4.932-2.352-7.54-2.945c-6.468-1.003-35.371-6.932-36.387-7.119   c-1.687-0.236-2.201-2.387-1.129-3.552c3.029-3.678,55.321-73.822,57.778-74.446c2.847-1.066,1.61-1.057,44.406,6.926   c1.658,0.179,3.902,0.457,4.946-1.186c5.518-7.397,12.072-14.202,15.981-22.65c-4.105-1.482-40.954-7.954-41.954-8.105   c-1.179-0.307-2.459-0.829-3.052-1.944c0.523-3.58,33.961-43.793,35.1-47.808c-2.504-1.543-2.26-1.28-35.651-7.519   c-3.095-0.7-6.961-0.379-9.034-3.223c14.89-20.059,32.672-40.665,34.822-46.371c-5.094-1.446-38.097-8.088-43.605-7.054   c-2.756,1.722-31.921,38.599-32.978,39.975c-5.831,6.344-1.774,6.877-19.876,3.91c-27.877-5.278-27.603-4.398-32.463-6.425   c0.1-2.366,1.687-4.21,3.116-5.947c0.939-1.003,31.126-37.94,32.363-40.897c-4.248-3.132-82.406-14.937-89.784-18.254   c0.145-4.251,10.451-14.027,16.532-21.785c2.409-2.7,6.101-2.578,31.641,3.166c68.447,12.7,60.193,12.867,64.997,8.434   c4.229-5.085,14.116-16.384,14.116-18.719c-2.171-2.64-36.372-6.198-43.048-10.249c1.344-3.981,4.774-6.647,7.29-9.849   c3.138-3.881,6.082-7.919,9.456-11.6c-3.897-2.427-8.098-1.934-41.032-8.412c-3.877-0.941-12.601,13.698-19.969,20.62   c-5,3.76-85.47-15.495-92.557-13.93c-4.588,3.538-7.547,8.67-11.457,12.879c-1.837,2.852-5.582,5.032-5.353,8.777   c23.399,4.967,37.143,5.97,42.255,8.941c-1.752,4.062-54.193,67.122-58.229,70.343c-6.518,1.108-12.965-1.344-19.376-2.216   c-3.021-0.407-23.131-3.73-27.481-5.596c0.014-1.115,0-2.33,0.908-3.13c24.861-29.418,33.782-39.587,36.351-43.848   c-1.401-0.945,1.116-0.872-39.882-8.777c-5.107-1.554-2.624-3.302-2.008-4.403c58.585-67.144,53.955-65.945,58.965-66.984   c7.084-0.335,37.619,8.541,44.041,7.104c2.266-1.565,3.931-3.824,5.482-6.061c1.948-3.064,10.582-11.437,11.314-14.902   c-13.991-3.846-35.717-6.609-42.469-9.692c1.822-4.614,23.941-28.957,32.72-40.275c7.511-8.998,3.865-5.1,42.791,1.58   c2.494,0.615,5.525,0.686,7.126,3.03c-4.352,6.633-14.76,17.498-16.253,21.456c9.789,3.043,28.407,5.21,41.876,8.677   c-0.107,1.186,0.021,2.523-0.8,3.509c-0.852,1.005-32.186,39.237-33.807,42.783c4.006,1.597,40.361,8.022,42.09,7.783   c3.664-1.892,34.055-42.58,37.616-44.699c6.32-1.348,40.749,8.397,45.964,6.854c10.699-12.729,20.77-25.98,31.255-38.903   c1.094-1.279,1.965-2.759,2.066-4.481c-4.067-1.479-8.434-1.615-12.601-2.645c-30.222-5.68-27.325-6.268-30.276-3.738   c-6.917,6.552-13.481,19.387-18.897,19.776c-2.743,0.096-39.047-7.312-41.676-8.126c-1.415-0.436-1.644-2.452-0.557-3.345   c13.857-16.834,13.342-16.732,16.21-18.997c6.389-2.145,39.794,8.031,45.171,6.819c2.695-2.123,4.603-5.025,6.768-7.648   c2.75-3.953,9.158-9.985,9.434-12.786c-8.676-2.798-106.699-20.573-130.252-26.152c-0.157-1.508,0.472-2.866,1.551-3.895   c21.729-23.202,3.387-20.444,57.128-10.857c3.883,0.883,11.723-10.223,13.465-12.872c1.722-2.502,4.653-4.438,5.139-7.605   c-29.892-6.862-43.799-6.613-39.839-11.286c1.723-2.558,74.293-88.266,75.732-90.106   C1022.397,261.914,1024.834,258.862,1027.329,255.853 M1056.654,283.735c-1.001,0.848-30.958,36.488-32.084,38.767   c2.254,1.767,22.011,4.492,36.215,7.548c1.387,0.229,2.923,0.658,4.288,0.079c4.483-3.224,14.979-18.762,17.704-19.641   c3.693-0.653,30.829,4.945,34.035,5.661c3.445,0.35,7.555,2.259,10.592-0.236c4.174-4.002,7.119-9.077,11.078-13.28   c1.144-1.472,2.78-2.837,2.752-4.867c-11.305-2.647-76.003-14.273-78.441-14.716   C1060.749,282.648,1058.391,282.312,1056.654,283.735 M1092.826,362.712c-3.085,2.145-13.593,16.084-15.574,19.212   c2.031,1.845,37.343,7.977,39.632,8.034c2.423-0.25,4.038-2.337,5.439-4.117c2.094-2.975,10.634-12.467,11.986-16.117   C1132.486,369.049,1097.207,361.401,1092.826,362.712 M1024.999,382.903c-3.152,4.453-7.533,8.119-9.584,13.265   c6.746,2.039,30.132,5.862,34.357,6.983c2.444,0.172,5.296,1.565,7.512-0.079c5.339-6.218,10.606-12.529,15.359-19.212   c-1.515-1.515-3.731-1.723-5.711-2.123c-6.227-1.033-31.637-6.207-34.25-6.268C1029.13,376.613,1027.414,380.33,1024.999,382.903    M1160.518,404.752c-0.838,1.005-45.409,56.878-46.729,61.238c12.221,3.317,95.671,17.208,98.411,17.775   c27.517,4.385,33.964,7.13,36.008,4.396c5.346-6.173,36.704-49.573,45.378-59.723c1.201-1.387,1.873-3.138,2.116-4.939   c-32.891-6.424-118.507-21.378-129.544-23.043C1163.448,400.185,1162.105,403.072,1160.518,404.752 M1618.143,403.451   c-3.738,3.033-13.036,16.59-13.644,17.725c0.951,0.75,2.058,1.372,3.316,1.508c11.193,1.422,22.307,3.481,33.485,5.067   c2.337,0.465,4.996,0.272,6.811,2.108c-2.23,5.367-25.653,35.415-27.438,39.896c0.222,1.337,1.708,1.329,2.78,1.594   c13.315,1.987,26.645,4.01,40.06,5.303c1.279-0.465,2.194-1.565,2.988-2.637c39.672-55.887,41.373-56.195,39.653-57.464   C1704.533,415.38,1623.642,402.399,1618.143,403.451 M1057.819,406.274c-1.743,1.402-12.557,14.597-15.874,19.934   c0.4,0.264,1.193,0.808,1.594,1.079c44.408,8.948,38.134,8.747,43.491,3.302c12.084-14.978,12.664-15.587,11.729-16.946   C1097.27,412.943,1061.395,405.58,1057.819,406.274 M1511.62,410.584c-3.474,3.302-5.725,7.669-8.691,11.414   c-1.594,2.544-4.195,4.574-4.667,7.698c5.046,1.694,10.442,1.923,15.695,2.509c22.841,3.893,27.491,2.841,26.895,6.025   c-0.819,1.938-21.735,30.093-27.059,38.159c-2.971,5.226-5.091,3.038-23.765,1.065c-12.967-2.455-28.028-2.362-25.201-6.483   c12.848-17.382,12.704-17.033,12.393-18.912c-7.069-1.408-14.245-2.173-21.37-3.252c-21.409-2.816-19.26-5.06-24.915,1.98   c-7.176,10.985-15.674,21.042-23.221,31.77c-1.758,3.374-5.039,6.647-9.149,6.19c-5.425-0.701-30.364-3.962-36.53-4.896   c-5.892-0.73-5.602-1.897-16.324,13.916c-1.301,2.087-3.423,3.688-3.981,6.189c4.272,1.339,84.98,13.446,89.427,12.851   c7.898-6.405,12.351-21.562,19.462-21.235c2.51,0.323,39.965,5.207,42.734,6.683c1.308,2.573-1.522,4.703-2.737,6.718   c-3.917,4.46-6.39,9.928-10.185,14.473c1.844,2.237,4.967,2.016,7.569,2.559c26.602,2.877,34.687,6.994,37.859,3.238   c14.511-19.807,11.897-21.317,21.463-19.755c9.73,0.979,34.384,5.324,39.66,5.303c2.849-3.395,12.24-16.478,13.973-20.656   c-4.625-2.659-38.031-5.407-43.999-8.034c0.14-4.014,40.883-57.197,43.262-63.403   C1597.629,421.919,1516.116,409.78,1511.62,410.584 M1140.699,498.431c-3.624,2.008-5.947,5.646-8.469,8.82   c-2.687,3.767-6.075,7.026-8.205,11.178c0.093,0.243,0.279,0.729,0.365,0.972c11.879,3.052,24.122,4.353,36.144,6.74   c2.001,0.372,4.103,0.407,6.104-0.086c1-0.796,15.162-17.508,15.467-20.434C1177.677,504.119,1143.513,498.512,1140.699,498.431    M1228.91,516.042c-3.974,5.096-7.533,10.507-11.779,15.388c-0.951,0.836-1.079,2.087-1.115,3.273   c12.816,3.161,36.579,4.842,42.512,7.319c-0.157,1.151-0.121,2.466-1.022,3.352c-12.226,15.453-13.812,20.325-19.133,19.462   c-20.243-2.416-33.39-5.621-41.983-5.654c-3.831,2.394-5.232,7.154-8.541,10.149c-2.444,3.788-6.004,6.926-7.662,11.171   c7.214,3.335,40.51,4.824,43.813,8.691c-6.456,12.231-19.429,22.727-13.473,22.814c5.139,1.501,10.506,1.873,15.788,2.723   c20.955,2.315,24.551,5.387,27.281,2.466c7.086-7.379,13.831-20.51,17.225-21.342c6.502-1.478,93.919,13.938,127.543,17.747   c4.567,0.893,9.442,0.765,13.694,2.888c-1.125,5.362-26.889,38.897-29.032,42.991c-1.522,2.602-4.117,5.289-7.426,4.689   c-41.163-4.607-42.131-8.211-46.057-3.259c-13.892,19.418-13.149,18.111-13.422,21.049c14.564,4.125,43.66,4.8,44.463,8.712   c-0.561,3.805-10.13,15.024-14.059,22.95c0.416,3.327,14.547,2.689,30.219,5.811c5.074,0.579,10.028,2.351,15.195,1.908   c7.699-10.042,31.527-46.473,32.406-47.722c3.241-4.574,9.068-1.208,35.486,2.087c4.817,1.008,9.885,0.922,14.494,2.83   c-0.653,6.375-28.696,42.906-30.269,50.517c5.374,2.245,33.546,5.595,41.311,6.969c4.918,1.32,6.451-2.127,11.65-10.535   c26.837-42.245,25.496-40.228,28.618-40.132c1.437,0.022,42.014,5.453,45.835,6.89c0.814,4.715-12.944,19.959-13.037,25.344   c4.733,1.787,39.383,5.952,43.727,6.604c2.001,0.436,3.402-1.244,4.403-2.716c12.982-19.338,10.975-20.179,14.402-21.456   c5.897-1.09,77.815,10.537,96.845,11.879c2.498-0.113,2.765-1.757,11.729-16.131c1.294-2.287,3.531-4.274,3.474-7.09   c-5.542-2.098-87.884-11.981-95.13-14.766c0.053-3.287,0.184-1.851,8.67-15.402c1.444-2.473,3.802-4.71,3.602-7.798   c-6.19-1.711-34.108-4.494-42.976-6.625c-7.047-0.727,9.261-15.307,10.885-22.657c-6.074-1.895-5.586-1.141-33.113-5.067   c-3.645-0.429-7.319-2.151-10.992-1.165c-2.523,0.529-3.617,3.13-4.982,5.017c-2.756,5.007-12.353,16.636-14.216,20.177   c-12.281,17.807-12.354,18.117-14.323,19.312c-4.342,1.479-92.848-11.447-96.467-13.487c0.526-3.295,9.557-14.481,12.007-18.19   c4.574-6.169,2.027-5.873,41.847,0.407c3.188,0.279,6.511,1.501,9.67,0.429c2.88-1.951,4.288-5.303,6.339-8.005   c13.051-16.484,0.834-16.464,54.248-7.633c5.582,1.035,6.831-5.438,12.065-11.729c1.994-3.095,5.368-5.539,5.789-9.442   c-3.653-1.826-60.6-9.508-61.602-9.563c-27.797-3.852-29.926-5.564-31.934-2.409c-3.659,4.953-7.812,9.549-10.95,14.866   c-1.587,2.516-3.938,5.26-7.24,4.903c-4.623-0.494-87.246-12.28-91.299-13.887c-0.936-1.422,0.443-2.873,1.194-4.024   c10.56-12.943,10.94-17.354,15.216-18.39c4.056-0.709,34.138,4.439,40.661,5.489c6.314,0.375,5.689,0.791,15.767-13.401   c19.223-27.422,20.803-27.31,19.841-30.583c-14.18-2.244-28.36-4.467-42.633-6.047c-5.718,5.932-9.849,13.151-15.152,19.426   c-3.977,4.882-13.975-0.564-48.666-4.338c-53.141-8.185-113.321-16.874-134.354-20.198   C1232.57,513.455,1230.232,514.177,1228.91,516.042 M1009.639,529.736c-9.027,13.142-17.009,18.974-13.315,19.805   c41.609,7.189,39.093,7.894,41.633,7.254c2.916-2.394,5.439-5.275,7.383-8.52c7.794-10.312,8.854-9.68,9.413-13.237   c-5.823-1.741-36.038-6.915-40.11-7.405C1012.67,527.249,1010.883,528.307,1009.639,529.736 M1104.212,544.209   c-1.494,0.55-2.58,1.765-3.531,2.973c-4.424,6.132-9.742,11.664-13.401,18.311c4.533,1.76,26.358,4.657,37.23,6.761   c2.737,0.493,6.454,1.258,8.177-1.622c2.537-4.06,5.947-7.447,8.634-11.4c1.594-2.802,5.375-4.767,4.774-8.434   C1145.095,550.606,1107.737,543.584,1104.212,544.209 M1698.957,584.32c-10.889,16.359-12.742,17.287-12.486,20.37   c7.235,1.979,17.681,2.011,35.779,5.16c10.339,1.262,8.257,1.997,15.645-7.998c4.546-7.324,8.02-10.007,6.747-12.243   c-3.076-1.211-37.13-5.998-38.131-6.14C1704.003,583.426,1700.965,582.204,1698.957,584.32 M1064.137,594.319   c-3.738,3.724-6.347,8.362-9.756,12.365c-1.244,2.016-3.752,3.774-3.152,6.418c6.711,1.308,13.43,2.587,20.205,3.552   c23.169,3.202,20.885,5.731,25.916-0.565c3.874-5.425,8.534-10.256,12.258-15.781c0.557-0.965,0.15-2.051-0.036-3.023   C1061.481,589.129,1069.065,589.089,1064.137,594.319 M1731.684,613.595c-12.172,16.361-10.244,20.592-19.484,19.834   c-52.195-5.725-39.062-10.526-53.361,9.549c-1.358,2.101-3.252,4.117-3.316,6.761c1.042,1.404-6.541-0.287,139.093,19.934   c2.68,0.457,5.711-0.879,6.861-3.431c3.708-7.297,26.032-38.138,25.108-41.89c-4.418-1.01-86.16-11.674-87.161-11.75   C1736.852,612.444,1733.407,610.829,1731.684,613.595 M1253.647,620.785c-1.501,1.201-2.266,3.023-3.366,4.546   c-4.002,5.761-9.041,10.878-11.957,17.332c6.282,2.522,87.355,14.105,92.078,13.587c1.975-2.431,14.676-18.887,15.409-22.014   c-3.515-1.996,5.004,0.052-74.724-12.036C1265.275,621.75,1259.508,619.735,1253.647,620.785 M1140.506,632.049   c-2.336,2.902-11.7,15.445-11.7,15.445c-1.408,1.429-2.623,3.109-2.887,5.153c3.253,1.391,39.759,6.955,43.727,6.761   c3.902-2.759,5.396-7.612,8.827-10.835c2.48-3.581,5.739-6.74,7.326-10.864c0.014-1.472-1.694-1.53-2.716-1.837   C1152.182,631.914,1143.686,628.203,1140.506,632.049 M1862.679,656.6c-7.728,12.841-10.244,15.18-11.714,19.634   c5.31,1.451,10.828,2.037,16.317,2.337c27.522,4.107,30.537,4.995,32.806,0.493c3.036-5.586,10.463-15.831,10.871-18.933   c-14.066-2.68-28.396-3.674-42.576-5.589C1866.339,654.213,1863.78,654.67,1862.679,656.6 M1169.223,663.633   c-0.808,1.002-13.879,17.711-14.573,21.006c9.787,2.792,39.891,5.928,43.87,7.926c1.597,3.057-0.623,2.921-7.533,13.601   c-5.913,9.32-6.339,7.189-6.39,11.514c8.455,2.394,17.346,2.494,25.909,4.424c21.479,2.832,16.644,4.186,20.384,0.329   c2.934-4.336,24.653-34.362,25.63-35.858c7.877-10.209,5.825-7.44,6.24-10.807c-16.134-3.196-72.832-11.492-85.903-13.666   C1174.269,661.896,1171.053,661.267,1169.223,663.633 M1393.726,723.634c-2.852,2.251-4.924,5.31-6.625,8.484   c-3.08,5.203-7.204,9.849-9.399,15.545c3.582,1.983,42.221,7.734,45.535,7.126c4.724-4.767,8.126-10.671,11.736-16.289   c1.501-2.68,3.888-5.16,3.595-8.455C1434.669,729.18,1397.725,723.147,1393.726,723.634 M1604.549,727.265   c-0.737,1.002-11.751,18.348-13.323,22.542c3.838,1.958,8.226,2.159,12.415,2.823c11.45,0.372,22.607,3.981,34.107,3.724   c2.988-3.317,12.783-18.684,14.466-23.493c-4.063-2.719-29.566-4.704-42.205-6.718   C1608.13,725.907,1605.792,725.428,1604.549,727.265 M1111.709,740.502c-4.26,6.468-10.185,11.771-13.623,18.79   c3.886,2.042,23.864,4.698,33.649,6.475c4.131,0.915,8.469,2.18,12.708,1.079c2.034-2.492,15.996-19.716,15.26-23.114   c-6.418-2.258-13.28-2.659-19.934-3.809C1114.334,735.235,1115.731,734.655,1111.709,740.502 M1307.137,770.077   c-8.458,13.502-12.977,17.724-13.88,22.528c4.792,1.624,42.14,7.75,43.791,7.955c2.623,0.021,3.967-2.666,5.389-4.467   c3.311-5.434,12.353-16.92,12.615-20.32c-2.923-1.558-6.225-2.051-9.477-2.323c-1.598-0.149-28.737-5.052-33.042-5.539   C1310.51,767.604,1308.245,768.255,1307.137,770.077 M1392.854,805.049c-5.061,5.927,7.699,4.655,29.011,8.72   c4.053,0.994,8.198,1.437,12.343,1.901c1.894,0.093,4.381,0.293,5.532-1.594c11.63-18.248,13.865-19.902,14.044-24.051   c-3.634-1.174-40.159-5.885-43.448-6.275C1405.468,782.826,1404.756,787.788,1392.854,805.049z"/>
	<path d="M421.591,265.516c3.574-0.679,7.054-1.765,10.592-2.609c4.147-1.248,21.126,18.028,30.033,22.671   c0.643,3.116-2.544,4.846-5.125,5.403c-68.88,16.322-42.117,19.821-71.516-1.194c-3.831-2.995-7.183-7.169-7.183-12.272   c3.474-1.994,7.619-1.908,11.364-3.109c5.568-1.315,10.607-4.203,16.253-5.246C411.092,267.467,416.474,267.089,421.591,265.516z"/>
	<path d="M835.982,270.312c5.684,0.371,0.761-2.401,16.11,21.149c1.337,2.008,3.095,4.038,2.559,6.654   c-3.602,2.073-7.905,1.365-11.75,2.673c-4.454,0.287-46.525,6.109-47.965,6.383c-8.215,1.508-6.064-0.992-17.146-19.419   c-1.823-2.816-2.051-6.218-2.552-9.441c6.168-1.751,12.765-1.544,18.969-3.252c1.98-0.429,3.988-0.915,6.039-0.972   C808.4,274.649,824.548,271.281,835.982,270.312z"/>
	<path d="M709.283,271.334c5.975,1.019,58.093,19.977,59.094,20.255c1.099,5.356,7.5-0.01-43.856,30.955   c-4.654,3.021-5.039,1.709-32.299-7.769c-7.69-2.644-28.639-9.213-31.348-11.478c1.937-4.817,7.262-6.718,11.15-9.656   C677.653,289.274,705.164,271.022,709.283,271.334z"/>
	<path d="M1629.478,294.577c7.964,0.335,59.286,9.815,62.031,11.021c0.457,2.723-1.279,4.932-2.966,6.833   c-3.057,3.929-14.448,18.503-19.326,20.763c-2.639,0.325-38.854-6.459-41.411-6.997c-11.173-2.218-21.68-2.078-18.197-6.154   c2.559-3.624,5.761-6.754,8.227-10.456C1622.11,304.898,1626.069,299.93,1629.478,294.577z"/>
	<path d="M598.529,309.465c0.315-1.022,1.158-2.066,2.351-1.923c14.909,1.394,29.697,4.038,44.67,4.703   c5.139,1.508,10.599,0.343,15.717,1.915c0.886,0.6,2.151,1.344,1.715,2.637c-1.177,6.562-11.783,24.829-15.438,28.832   c-1.279,1.508,0.419,1.783-33.821-1.608c-1.001-0.068-22.599-1.862-28.603-3.095C585.254,335.33,593.373,323.554,598.529,309.465z"/>
	<path d="M1806.845,317.198c2.919,1.565,24.718,10.181,31.977,14.638c-0.1,1.365-0.136,2.737-0.115,4.117   c-4.226,2.802-37.211,16.398-38.867,17.018c-1.93,0.865-3.824-0.264-5.532-1.029c-29.043-13.114-32.275-15.114-33.749-18.44   c-0.879-1.294,0.529-2.737,1.794-3.002c7.655-2.058,14.566-6.068,21.992-8.77C1801.724,315.174,1799.627,313.636,1806.845,317.198z   "/>
	<path d="M853.55,319.342c2.38-0.779,5.289-2.394,7.583-0.529c1,0.715,29.775,20.008,30.869,20.634   c1.551,0.515,1.551,2.787,0.35,3.681c-3.576,3.649-4.568,2.837-54.677,21.099c-2.137,0.779-4.746,2.266-6.833,0.579   c-4.808-3.489-29.382-19.287-32.07-21.699c-0.029-1.315-0.193-2.645,0.093-3.931c1.544-1.908,4.11-2.33,6.282-3.195   C806.922,335.505,852.685,319.665,853.55,319.342z"/>
	<path d="M1904.913,338.375c3.831,5.868,6.011,12.565,9.391,18.676c1.358,2.866,3.088,5.553,4.467,8.412   c3.044,5.842-6.755,4.455-11.693,5.339c-0.001,0-46.742,4.824-46.743,4.824c-6.902,0.85-6.405,0.896-8.048-2.323   c-2.951-7.027-10.848-18.876-11.421-23.643c-0.314-2.18-1.029-4.26-1.637-6.354C1843.002,341.99,1897.976,337.851,1904.913,338.375   z"/>
	<path d="M2049.037,355.579c1.394-1.286,2.616-3.459,4.846-3.066c1,0.085,55.818,9.592,59.458,11.55   c-0.624,6.245,0.051,0.729-16.289,21.671c-1.536,1.708-3.123,3.667-5.324,4.446c-3.171-0.245-54.269-7.51-59.58-10.514   c1.179-3.774,4.11-6.597,5.989-10.013C2041.061,364.449,2045.128,360.053,2049.037,355.579z"/>
	<path d="M494.886,354.514c8.883-2.119,5.577,3.199,9.885,14.016c1.844,4.81,2.98,9.942,5.668,14.402   c1.036,1.944,1.901,4.345,0.958,6.504c-2.416,2.733-7.111,2.178-52.761,8.898c-6.139,0.908-12.265,2.373-18.511,2.094   c-3.273-4.96-5.596-10.485-7.705-16.017c-1.672-3.809-4.095-7.69-3.538-12.029c0.3-1.551-0.364-3.745,1.344-4.624   c3.402-1.479,7.233-1.194,10.778-2.13c13.898-3.652,29.235-3.743,38.638-7.769C484.594,356.215,489.869,355.929,494.886,354.514z"/>
	<path d="M649.996,369.152c37.639,25.708,33.935,20.492,8.662,31.219c-31.432,10.071-14.155,16.123-50.495-10.871   c-4.57-3.302-6.727-7.689-1.415-9.599c8.419-2.83,16.918-5.532,24.958-9.341C645.492,364.904,644.298,365.781,649.996,369.152z"/>
	<path d="M1826.235,390.729c3.096-6.432,12.981,0.143,130.316,15.538c0.001,0,103.342,14.552,103.342,14.552   c89.458,12.796,87.595,9.78,94.98,13.258c-2.142,7.145-33.992,54.625-37.137,61.709c-7.29,10.785-18.703,31.073-48.408,81.615   c-2.894,5.538-8.094,2.34-33.857-0.05c-5.592-1.04-38.053-4.715-38.767-4.71c-4.795-0.255-4.05,2.818-14.909,19.483   c-1.129,1.694-2.144,3.581-3.859,4.753c-9.874,1.025-61.664-5.55-69.128-5.689c-1.83-0.086-3.538-0.793-5.196-1.444   c2.523-9.992,10.156-17.575,13.937-27.038c-0.027-0.012-149.508-20.595-174.265-24.672c-7.64-1.046-15.828-0.808-12.987-5.125   C1750.462,498.578,1816.185,407.943,1826.235,390.729 M1792.858,518.522c2.909,2.778,234.916,32.739,235.917,32.656   c3.486-0.431,1.94-1.423,30.454-48.165c0.647-0.929,30.239-46.901,34.128-54.076c-3.631-2.33-8.248-1.808-12.336-2.637   c-2.594-0.672-3.13,2.466-4.638,3.781c-1.002,0.834-32.841,19.332-35.386,19.698c-2.816-0.429-5.46-1.844-8.377-1.479   c-7.425,8.402-31.977,50.063-34.793,53.383c-3.188,2.552-7.44,0.822-11.085,0.829c-0.001,0-128.314-17.396-128.315-17.396   c-1.723-0.443-3.91-0.479-5.082-1.923c-0.05-1.601,1.015-2.902,1.873-4.145c3.924-5.196,6.761-11.114,10.9-16.16   c3.388-5.989,8.077-11.1,11.607-16.996c14.026-20.447,14.672-22.156,16.803-22.557c5.04-1.659,95.037,13.762,100.119,11.55   c-0.879-1.53-1.587-3.159-1.672-4.932c5.039-2.702,10.228-5.103,15.145-8.041c1.951-1.344,5.032-1.622,5.954-4.081   c-5.543-1.101-146.651-21.041-150.872-20.913C1859.514,418.318,1793.53,517.52,1792.858,518.522z"/>
	<path d="M696.768,419.747c2.38-0.779,4.338,1.122,6.29,2.151c4.946,2.968,38.381,20.396,39.381,20.877   c-0.1,0.993,0.107,2.087-0.336,3.038c-3.711,3.033-28.58,14.914-43.47,21.049c-4.245,0.486-7.919-2.28-11.564-4.017   c-4.26-2.602-8.991-4.238-13.323-6.69c-16.919-9.144-20.225-9.872-19.398-12.758C654.898,440.416,654.022,442.837,696.768,419.747z   "/>
	<path d="M1190.043,429.939c6.766-1.122,44.404,6.235,45.5,7.176c0.657,1.558-0.315,3.066-1.322,4.195   c-10.201,11.566-11.698,18.657-17.068,18.104c-6.297-1.001-12.636-1.801-18.854-3.209c-26.845-5.767-28.726-0.699-16.796-15.424   C1184.426,437.229,1186.52,432.969,1190.043,429.939z"/>
	<path d="M387.156,443.962c4.667-0.529,9.634-1.501,14.159,0.257c0.542,5.88-2.714,29.424-2.923,32.013   c-0.307,2.559-1.201,5.06-2.552,7.262c-1.811,2.843-66.481,3.579-73.231,4.624c-1.63,0.393-3.209-0.2-4.724-0.736   c0.343-5.783,4.279-32.002,4.338-35.422c0.4-2.051,0.365-5.103,2.945-5.618c2.441-0.25,44.111-1.135,50.338-1.987   C379.365,443.798,383.275,444.169,387.156,443.962z"/>
	<path d="M592.975,449.758c6.416,0.191,7.82-3.506,17.282,2.752c1.237,2.637,1.308,5.654,2.401,8.348   c0.708,1.179,1.737,2.13,2.452,3.316c0.336,2.28,0.286,4.61,0.715,6.89c-0.658,0.972-1.587,1.837-1.873,3.009   c0.193,1.379,0.679,2.716,0.765,4.124c-0.164,2.287-1.022,4.46-1.301,6.733c-0.274,4.351,1.685,2.741-1.537,12.293   c-1.322,1.522-3.359,2.516-3.952,4.574c-1.094,3.809-2.873,7.519-2.866,11.557c-0.813,18.76,1.036,12.373,4.489,23.707   c13.907-1.973,36.831-10.533,43.348-10.135c2.686,9.134,17.882,70.39,21.413,82.98c1.019,3.407-14.998,5.464-46.228,15.788   c-4.624,1.687-9.463,2.702-14.023,4.581c-7.855,3.302-16.625,3.945-24.172,8.019c-1.165,0.536-0.7,1.951-0.715,2.952   c0.143,1.573,0.122,3.188,0.515,4.746c1.194,2.587,4.567,2.394,6.304,4.417c3.876,4.166,13.995,7.063,13.63,10.835   c-2.885,9.033-16.992,13.555-20.856,12.844c-12.943-2.259-12.174,2.911-20.062,3.631c-3.08-0.457-6.411-0.55-9.063-2.373   c-3.992-3.677,0.028-11.327-1.129-25.237c-1.001-1.465-2.63-3.145-4.553-2.159c-27.578,11.229-45.674,11.194-47.908,18.619   c-0.343,2.23-0.8,4.474-0.872,6.747c2.699,16.327,11.629,12.508,13.566,18.597c1.165,3.223,3.145,6.44,2.737,9.992   c-0.393,3.073-4.002,3.288-6.425,3.645c-6.354,0.093-12.172,4.281-18.59,3.052c-6.55-0.32-19.131-4.912-22.257-9.313   c-3.452-6.225-3.438-13.787-1.744-20.541c0.686-3.03,2.416-5.625,3.824-8.341c1.678-3.057,1.134-13.232,2.223-16.36   c4.791-17.004,4.332-11.664,1.737-19.305c-1.522-3.266-0.515-7.019-1.865-10.335c-0.936-4.589-2.451-9.084-2.752-13.78   c-0.451-4.696-5.002-18.935-7.412-32.942c5.424-8.451,16.624-2.922,23.293-9.234c5.863-10.933,1.571-33.318,8.977-41.068   c3.781-3.817,8.605-6.797,11.207-11.65c2.887-5.368,8.963-7.676,12.972-12.007c2.537-3.173,5.718-5.789,7.933-9.227   c0.836-1.437,2.737-1.472,3.874-2.566c4.467-4.539,10.742-6.411,16.003-9.792c2.301-1.072,4.131-3.238,6.79-3.402   c3.195-0.307,6.19-1.63,9.399-1.815c1.387-0.086,2.723-0.479,4.038-0.929c0.837-10.991-0.671-19.197,8.062-22.743   C584.463,451.052,588.644,449.694,592.975,449.758 M570.612,531.023c-2.759,1.379-5.825,2.066-8.434,3.745   c1.458,2.094,2.888,4.288,5.089,5.696c2.594,1.737,3.902,4.767,6.483,6.54c2.816-0.808,5.682-1.444,8.469-2.352   c0.071-7.09,0.014-14.18,0.057-21.27C578.18,525.619,574.943,529.186,570.612,531.023z"/>
	<path d="M235.791,493.821c2.687,4.403,6.747,7.733,9.299,12.243c10.227,13.219,16.009,16.756,13.758,21.192   c-2.587,2.659-6.568,2.33-9.92,3.045c-1.004,0.269-40.935,11.014-45.499,11.629c-5.416,0.147-6.889-6.089-24.294-26.416   c-1.437-1.93-3.538-4.274-2.609-6.847c1.129-1.494,3.059-1.966,4.746-2.53C225.637,492.297,232.899,488.352,235.791,493.821z"/>
	<path d="M466.383,498.517c2.682,2.661,13.201,26.314,15.102,30.533c0.557,1.515,1.465,3.752-0.121,4.946   c-3.036,2.688-70.02,15.455-75.254,13.987c-3.052-3.059-4.052-7.383-6.004-11.107c-11.282-28.174-15.038-20.924,21.72-28.875   C422.829,507.841,459.534,501.444,466.383,498.517z"/>
	<path d="M1309.145,549.091c56.989,8.556,44.179,2.841,31.191,24.036c-1.501,2.544-3.652,5.353-6.883,5.425   c-3.237-0.004-38.753-5.11-44.413-6.754c0.079-1.165-0.1-2.48,0.808-3.373C1304.011,550.879,1302.829,548.258,1309.145,549.091z"/>
	<path d="M2203.883,571.126c6.561-1.044,12.908-4.36,19.705-3.202c3.559,0.615,7.591-0.036,10.664,2.301   c2.959,2.337,6.425,3.96,9.184,6.576c2.923,2.959,7.64,1.787,11.042,3.895c2.78,1.451,4.06,4.824,7.19,5.754   c2.63,1.429,5.703,0.908,8.591,1.079c8.47-11.484,11.498-7.592,16.231-8.691c4.474-0.951,9.091,0.229,13.566-0.865   c2.98-0.908,6.068,0.529,8.126,2.702c2.123,2.073,5.475,4.174,5.046,7.576c-5.565,12.478-0.705,25.245-14.938,26.566   c-3.581-0.1-4.796,3.931-7.662,5.282c-4.146,1.615-8.598,2.43-13.044,2.173c-2.78-0.243-6.025,0.665-8.319-1.315   c-2.494-2.023-3.995-4.96-6.254-7.176c-2.366-1.765-5.889-2.044-8.377-0.414c-2.459,1.501-5.475,1.873-7.712,3.738   c-2.137,1.658-4.56,2.98-6.461,4.91c-1.244,4.145-0.179,8.584-0.522,12.851c-0.4,4.094,3.25,18.695,5.811,22.507   c22.821,19.039,30.32,20.265,28.889,25.123c-2.658,3.28-10.628,2.351-11.965,5.425c-0.157,1.444-0.143,2.98,0.365,4.381   c3.584,3.664,9.606,15.545,5.003,18.097c-1.994,2.223-4.967,1.908-7.647,1.823c-3.709,0.629-5.982-3.281-9.656-3.123   c-6.428-8.04-5.007-13.695-13.165-13.716c-3.888,0.45-7.533,2.18-11.443,2.394c-4.013,0.471-25.698-21.34-36.308-25.844   c-0.572,1.973-2.223,4.038-1.115,6.118c13.657,30.873,1.907,7.209,11.314,44.599c0.136,4.274-0.329,8.563-0.043,12.829   c1.301,7.297,4.617,14.009,6.633,21.106c2.296,8.496,21.183,6.532,21.034,13.372c0.079,2.602,1.315,6.304-1.465,7.919   c-2.316,1.622-4.767,3.102-7.483,3.888c-4.917,1.415-9.57,3.624-14.538,4.832c-2.336,0.71-18.667,0.983-23.779-0.908   c-12.97-3.73-9.183-2.522-15.445-10.364c-1.386-4.674,1.573-9.227,1.158-13.937c-0.393-4.296,1.051-8.462,0.722-12.758   c-1.351-0.986-2.895-2.587-4.696-1.908c-12.681,3.961-14.285,1.552-17.868,0.729c-4.796-1.615-10.035-2.137-14.33-4.982   c-2.001-1.701-1.758-4.632-2.28-6.969c-0.897-14.935,3.173-12.553,3.96-18.433c0.829-4.732,2.287-9.356,4.61-13.573   c1.701-3.081,1.851-6.633,2.752-9.949c1.136-1.88,3.13-3.088,4.51-4.796c7.774-7.594-4.629-27.979-7.755-30.64   c-2.737-2.223-3.295-5.896-4.731-8.913c-1.83-3.852-2.895-7.998-4.503-11.929c-3.717-6.697-3.281-14.745-2.166-22.064   c2.23-6.997,7.076-12.715,11.621-18.333c2.623-3.481,6.997-4.581,10.757-6.383c5.121-1.888,26.142-20.229,48.623-17.425   C2198.258,572.891,2200.974,571.583,2203.883,571.126 M2182.477,636.045c-0.343,1.858-2.423,3.509-1.53,5.446   c1.508,3.795,3.002,7.612,4.324,11.493c0.922,0.229,1.887,0.65,2.916,0.479c5.553-0.729,11.021-2.008,16.367-3.695   c5.252-1.74,9.381-0.137,6.004-9.399c-1.122-2.959-4.217-4.403-5.654-7.14c-1.129-1.437-1.894-3.652-3.909-3.938   C2195.085,628.938,2183.296,631.284,2182.477,636.045z"/>
	<path d="M108.248,579.331c1.136,5.825-0.486,11.672-0.786,17.497c-0.951,5.167-0.136,10.514-1.387,15.645   c-1.201,1.329-3.109,1.637-4.817,1.708c-5.253,0.164-10.478,0.865-15.745,0.672c-1,0.066-55.882,3.664-61.216,2.659   c-0.93-4.332,1.685-16.035,2.466-23.329c0.536-4.095,1.358-8.205,3.445-11.814C32.265,581.419,105.266,577.621,108.248,579.331z"/>
	<path d="M2406.565,600.873c2.673-0.836,5.539,0.75,7.069,2.952c2.03,2.773,5.175,4.353,7.505,6.847   c0,0,16.024,17.613,23.379,23.872c1.237,0.943,0.958,2.566,0.093,3.667c-2.087,1.315-4.531,1.93-6.918,2.344   c-4.103,0.615-7.983,2.13-12.007,3.016c-5.625,1.387-11.543,1.958-16.775,4.574c9.159,1.35,37.638,2.415,44.27,3.316   c2.262,1.363,1.399,1.132,9.034,20.391c0.958,2.158,0.25,4.603,1.051,6.804c1.386,3.209,1.472,6.904,0.7,10.292   c-6.126,0.585-61.474-1.975-62.474-2.13c-1.036-0.889-8.558-27.369-8.856-28.375c-0.629-1.487-1.487-2.845-2.28-4.217   c-3.495-0.407-6.94,0.293-10.385,0.457c-3.043-1.046-33.52-17.451-36.601-22.671c-1.151-2.137-3.045-3.745-4.196-5.839   c0.235-4.422,11.608-4.88,16.968-9.191c-0.236-1.394-1.165-3.088,0-4.303C2358.447,610.242,2366.655,609.061,2406.565,600.873z"/>
	<path d="M268.082,605.154c3.495-1.501,6.368,1.501,9.113,3.181c44.004,32.381,49.901,21.329-2.03,43.227   c-4.581,2.687-9.513,4.724-14.609,6.168c-6.031,0.698-36.263-23.046-39.674-27.424c-1.545-7.388-0.057-4.766,22.657-15.41   C251.987,612.323,259.806,608.185,268.082,605.154z"/>
	<path d="M904.046,640.376c4.338,0.65,8.948,0.843,12.808,3.173c-1.094,2.945-3.531,4.996-5.389,7.433   c-11.743,15.378-12.652,16.054-14.752,16.074c-3.835,0.442-4.158,0.31-38.738-6.29c-2.559-0.272-5.175-0.758-7.219-2.423   c1.051-3.409,4.11-5.561,6.032-8.441C873.952,630.824,860.768,632.934,904.046,640.376z"/>
	<path d="M242.559,652.19c2.155,1.908,4.993,11.458,7.848,18.676c2.323,4.91,3.945,10.121,6.425,14.966   c1.92,4.521,7.809,15.118-1.186,14.766c-14.768-0.213-66.457,9.603-77.04,8.527c-1.687-3.381-3.817-6.568-4.939-10.199   c-1.051-3.302-2.988-6.232-4.052-9.52c-6.692-19.458-6.601-12.78-6.211-22.307C167.656,664.695,234.035,650.553,242.559,652.19z"/>
	<path d="M696.353,657.329c17.686,3.718,272.808,51.491,290.015,53.776c27.178,6.042,32.991,4.385,31.991,8.77   c-1.302,2.497-120.932,158.016-137.678,176.302c-3.188,2.847-3.567,1.903-48.237-6.425   c2.714-8.013,112.031-146.927,112.627-147.927c1.344-2.473,4.803-4.138,3.795-7.397c-45.287-9.982-268.864-46.751-280.273-56.835   c1.701-2.966,5.389-3.609,7.905-5.668C686.614,663.618,685.565,655.05,696.353,657.329z"/>
	<path d="M2322.906,667.979c2.187-0.951,4.31,0.858,6.14,1.901c1.393,0.978,48.013,27.473,49.759,28.946   c0.743,2.058-1.479,3.888-2.266,5.689c-5.26,2.795-10.528,5.582-15.51,8.841c-4.103,2.909-9.056,4.145-13.43,6.525   c-4.403,2.309-8.92,4.989-13.951,5.403c-4.489-1.622-7.791-5.375-12.243-7.054c-1.843-0.65-11.888-7.958-14.488-9.106   c-3.521-1.619-21.385-12.187-22.385-12.701c-1.679-0.893-2.909-2.409-3.952-3.924c-2.428-5.768,11.227-6.816,23.95-13.537   C2311.006,675.919,2316.802,671.674,2322.906,667.979z"/>
	<path d="M304.247,672.81c10.653,1.341,52.968,4.965,53.619,4.96c11.914,0.642,3.242,5.701-11.636,37.637   c-0.843,2.544-3.845,3.424-6.261,3.009c-89.677-11.671-79.479-2.81-73.946-18.147c2.329-6.353,15.386-26.56,16.003-27.567   C284.012,668.968,292.394,672.899,304.247,672.81z"/>
	<path d="M439.159,717.831c1.122,1.73,1.044,3.917,1.394,5.896c0.329,8.977,2.03,17.818,3.116,26.724   c-0.943,0.765-1.88,1.544-2.823,2.316c0.415,0.607,0.836,1.229,1.258,1.865c-9.708-1.595-10.764,1.166-16.467,2.301   c-7.935,0.585-36.697,4.016-45.857,5.582c2.502,3.157,21.265,8.078,28.11,10.928c1.944,0.536,1.522,2.752,1.451,4.317   c-0.15,2.008-1.865,3.438-3.409,4.517c-13.835,8.653-33.592,23.529-33.592,23.529c-16.362,8.678-74.948,49.321-84.195,53.183   c-2.602,1.222-5.268-0.057-7.762-0.85c-48.837-17.282-66.046-19.228-67.256-24.193c-1.994-7.612,9.187-2.348,122.876-80.135   c1.815-1.172,3.645-2.909,5.961-2.716c5.675,0.815,10.835,3.809,16.617,4.102c-0.229-3.424-1.308-6.797-0.829-10.242   c0.94-8.597-2.721-6.914-0.229-18.919C360.617,725.072,437.062,716.508,439.159,717.831z"/>
	<path d="M2332.691,755.661c1.059,0.205,45.838,9.945,52.104,11.436c30.289,6.3,24.009,3.877,17.889,22.85   c-0.562,1.771-7.96,10.27-6.704,16.224c-1.179,0.986-2.187,2.166-3.459,2.995c-0.771,0.128-71.5-15.335-72.266-15.495   c-1.951-0.472-3.438-1.844-4.874-3.109C2317.854,781.984,2328.83,756.737,2332.691,755.661z"/>
	<path d="M1556.684,803.812c1.118-0.257,344.442,42.125,353.353,48.508c1.687,1.072,0.507,3.159-0.2,4.481   c-1.375,2.008-56.269,99.056-56.685,104.686c-0.121,1.916-2.108,2.802-3.009,4.317c-0.552,0.895-32.911,63.238-45.028,87.919   c-1.315,2.544-4.51,3.273-7.119,3.531c-33.716-1.195-338.802-50.725-340.167-50.781c-32.428-6.296-24.889-0.28-9.377-29.339   c6.353-9.025,94.585-154.786,105.144-171.427C1554.239,804.577,1555.504,804.163,1556.684,803.812 M1587.038,842.715   c-1.623,3.241-76.746,128.396-80.6,135.998c-0.214,5.638,8.559,2.198,110.44,19.605c12.579,2.251,100.253,14.123,100.255,14.123   c59.026,7.598,44.493,8.724,53.997-6.354c1.851-3.402,4.481-6.404,5.604-10.178c2.104-7.317,65.541-120.082,64.904-124.291   c-9.921-3.571-226.906-30.718-245.873-32.956C1589.953,838.407,1589.339,838.234,1587.038,842.715z"/>
	<path d="M2259.174,837.269c5.866-0.821,92.775,4.217,95.673,4.253c100.036,8.558,67.589,4.386,82.115,5.525   c1.394,0.003,21.74,1.729,25.787,1.544c9.848,1.397,55.229,1.459,63.253,3.166c6.936,6.317,3.252,12.562,6.547,19.927   c0.829,1.58,0.343,3.402,0.629,5.11c0.429,3.109,1.622,6.039,2.387,9.084c0.515,2.173-0.543,4.36-0.164,6.554   c0.114,2.652,2.116,4.867,1.865,7.576c0.25,2.366-2.437,3.795-4.474,3.795c-38.508-1.466-107.467-6.313-108.467-6.397   c-162.976-12.03-156.735-8.569-158.677-13.33c-1.638-4.016-7.821-40.27-7.905-43.427   C2257.88,839.434,2257.773,837.769,2259.174,837.269z"/>
	<path d="M1623.167,873.034c6.243-1.253,122.474,14.503,123.476,14.688c38.126,5.71,33.924-2.514,16.889,30.683   c-1.03,1.762-10.135,19.198-10.135,19.198c-6.984,9.917-18.757,38.209-24.115,42.333c-3.229,3.461-127.126-16.364-151.358-19.298   c-1.723-0.257-4.21-0.529-4.503-2.659C1573.886,956.978,1620.68,874.867,1623.167,873.034z"/>
	<path d="M1967.208,876.607c17.632,3.37,77.286,17.428,78.162,17.754c0.86,5.669-4.984,13.046-8.384,22.392   c-0.844,2.208-0.193,4.839-1.701,6.818c-1.478,2.83-2.528,1.16-1.344,5.818c-2.144,1.923-4.324,3.895-5.732,6.447   c-1.916,2.902-2.545,6.704-5.396,8.927c-2.116,0.843-4.374-0.279-6.418-0.786c-7.712-2.666-15.953-3.152-23.686-5.682   c-2.537-0.8-5.21-0.851-7.755-1.487c-42.961-10.998-37.145-5.217-40.882-14.037c-0.057-3.023,1.286-5.811,2.673-8.419   C1964.864,877.264,1964.184,875.592,1967.208,876.607z"/>
	<path d="M370.996,898.835c1.265-0.572,2.909-0.407,4.024,0.465c45.242,30.427,56.761,36.074,53.976,41.104   c-4.413,4.826-16.85,8.53-18.697,9.956c-2.008,1.465-4.245,2.602-6.618,3.381c-13.673,5.389-26.524,12.629-39.932,18.611   c-4.985,2.154-9.045-2.797-55.098-31.069c-2.266-1.83-4.896-4.238-4.331-7.462c2.43-2.273,5.639-3.431,8.341-5.332   c2.494-1.544,4.517-3.938,7.433-4.703c5.378-1.529,17.209-9.414,21.427-10.835C351.191,907.919,361.676,904.532,370.996,898.835z"/>
	<path d="M1265.79,910.106c4.122-1.571,45.324,6.766,46.329,6.969c8.461,2.39,4.294,1.664-20.406,40.589   c-8.372,11.56-9.468,17.242-16.16,16.203c-59.244-11.053-49.752-4.045-32.642-30.662   C1244.037,941.769,1263.047,912.704,1265.79,910.106z"/>
	<path d="M2280.644,918.462c2.03,1.708,3.509,4.024,5.539,5.796c1.958,1.565,1.651,4.396,2.93,6.425   c1.743,3.102,20.379,30.719,21.177,31.72c7.335,8.84-4.448,6.059,36.365,18.676c7.598,2.537,14.874,6.004,22.621,8.134   c1.144,0.415,2.394,0.736,3.445,1.472c0.636,1.658,0.772,3.466,1.286,5.189c-0.361,0.388-12.052,14.558-12.758,15.767   c-11.7,9.103-11.375,12.968-18.719,15.581c-5.854-0.283-13.531-4.556-17.411-2.559c-1.043,2.709-1.894,6.547-5.268,7.054   c-6.004,2.309-12.536,2.309-18.669,4.067c-30.968,7.186-33.394,8.103-36.916,6.926c-12.601-8.061-14.786-11.53-17.911-16.96   c-1.158,0.965-2.459,1.694-3.76,2.394c-0.043,0.85-0.043,1.723-0.014,2.602c0.829,0.014,1.679,0.043,2.566,0.079   c0.164-0.636,0.493-1.901,0.657-2.537c0.75,1.258,0.143,2.709-0.6,3.831c-1.594,0.4-3.231,0.45-4.832,0.529   c-3.838,1.144-7.683,2.301-11.593,3.166c-0.636,5.661-0.1,11.364-0.558,17.039c0,0.915-1.172,1.101-1.679,1.673   c-1.244,1.594-3.281,2.923-5.353,2.416c-22.645-4.749-64.815-6.395-64.997-10.514c-1.195-6.974,2.068-13.616,4.753-34.679   c-5.155-3.907-31.721-3.978-36.101-6.833c-2.834-3.21-4.9-25.36-6.597-34.164c-1.113-8.997,5.924-4.676,12.129-4.967   c13.515,1.487,27.102,2.187,40.646,3.495c5.117,0.193,10.378-0.193,15.381,1.122c2.878,2.402,4.997,35.846,8.605,39.331   c4.266,1.865,22.117,3.199,24.715,3.302c2.48,0.057,3.438-3.145,5.896-3.381c5.723-0.578,37.219-8.184,45.421-9.692   c4.481-1.537,9.713-1.78,13.251-5.318c5.139-5.774,16.62-14.737,17.689-19.412c-5.92-0.679-29.772,1.883-40.818,2.058   c-22.588,2.195-22.217,1.991-24.787-1.008c-5.069-7.263-15.973-25.253-16.482-26.452c-3.259-7.998-10.707-14.252-11.15-23.321   c0.844-2.695,4.446-2.073,6.69-2.244C2272.886,917.882,2276.518,916.841,2280.644,918.462z"/>
	<path d="M1411.787,933.935c2.094,0.272,4.081,1.044,5.947,2.058c-0.638,5.398-9.621,18.088-12.215,21.799   c-1.522,2.237-3.038,4.889-5.811,5.689c-3.547,0.702-42.198-6.054-48.087-8.055c-3.497-1.51,3.95-9.91,8.498-18.04   C1372.626,921.521,1361.758,927.654,1411.787,933.935z"/>
	<path d="M592.561,945.357c2.502-0.429,4.867,1.337,7.076,2.373c6.075,3.33,33.711,15.171,35.822,16.296   c7.794,4.207,19.826,6.644,15.731,10.549c-3.281,3.681-8.155,5.203-12.1,7.998c-5.661,3.938-11.636,7.376-17.296,11.307   c-13.147,7.191-14.367,12.563-25.952,6.24c-0.001,0-29.76-13.208-29.761-13.208c-4.192-2.405-22.261-8.376-17.304-13.88   C551.757,969.318,591.559,945.797,592.561,945.357z"/>
	<path d="M2007.583,958.736c4.317-0.583,39.453,5.133,43.441,6.311c22.907,6.602,19.428,0.962,21.013,8.92   c1.155,5.356-4.887,14.533-4.403,23.114c-1.122,3.967-3.252,8.141-1.422,12.279c-8.068,10.681-8.654,6.349-15.352,5.403   c0,0-44.281-8.331-47.829-8.734c-1.742-0.327-9.783-0.08-7.869-7.304C2004.682,966.757,2004.377,960.449,2007.583,958.736z"/>
	<path d="M1959.932,971.88c1.522,0.136,2.18,1.787,2.037,3.166c-0.097,6.173-6.531,13.146-6.311,17.947   c0.214,2.287-3.031,2.116-3.445,4.117c-1.694,4.896-3.874,9.642-6.676,14.009c-3.977,3.263-7.683,1.515-17.525,0.586   c-7.862-0.586-15.431-2.98-23.229-3.96c-6.611-0.736-13.037-2.552-19.462-4.21c-6.359-1.75,2.595-12.9,7.433-25.165   c2.694-4.996,4.674-10.371,7.869-15.088C1901.974,960.723,1900.946,961.201,1959.932,971.88z"/>
	<path d="M1891.054,1010.197c4.438-1.001,8.856,0.643,13.158,1.594c53.349,12.19,42.56,9.949,49.809,4.181   c8.317,1.128,0.011-0.175,21.535,6.64c14.344,5.384,66.096,18.423,72.688,22.607c0.543,3.788-2.201,6.604-3.831,9.706   c-7.785,12.768-5.735,5.321-7.126,14.23c-2.694,0.379-4.982,2.63-5.239,5.36c-0.086,3.045-2.566,5.175-4.717,6.99   c-3.674,2.838-5.711,7.426-9.949,9.592c-11.484,0.593-39.603-7.288-42.183-7.698c-10.636-1.15-34.185-7.912-40.668-7.505   c-0.961,0.07-59.808-8.336-65.247-9.556c-2.351-0.322-5.754-0.572-6.297-3.423c-1.015-2.637,1.222-4.846,2.137-7.147   C1883.137,1026.176,1885.614,1013.478,1891.054,1010.197z"/>
	<path d="M823.453,1011.876c4.291,3.906,13.809,21.215,19.026,28.16c7.996,11.815-5.425,8.874-45.985,18.583   c-35.553,7.519-23.888,8.357-33.664-7.54c-1.43-2.344-2.58-4.839-3.388-7.447c-1.787-5.646-5.768-10.757-5.468-16.925   c0.339-4.555,13.545-4.927,41.297-10.871C807.9,1014.457,820.086,1009.693,823.453,1011.876z"/>
	<path d="M1058.234,1015.793c0.472-0.915,1.179-1.908,2.301-2.015c6.105-0.801,76.054,8.998,84.616,12.701   c-0.257,2.48-0.293,5.146-1.815,7.269c-27.734,40.393-12.702,31.772-48.594,27.874c-2.336-0.074-25.166-4.188-28.603-4.331   c-13.976-3.109-30.423-2.393-28.196-7.562C1043.696,1037.842,1052.423,1027.643,1058.234,1015.793z"/>
	<path d="M1255.784,1018.909c2.323-0.972,4.51,0.315,5.947,2.13c3.18,3.188,16.803,19.706,17.847,20.784   c15.373,18.34,10.208,10.493-40.968,27.06c-4.345,1.094-8.569,3.102-13.122,3.03c-2.695-0.1-4.338-2.552-5.989-4.331   c-7.372-10.579-24.135-25.39-23.593-31.748c-0.606-3.542,20.806-7.572,32.177-11.035c4.238-0.901,8.334-2.409,12.644-3.03   C1245.72,1020.696,1250.881,1020.453,1255.784,1018.909z"/>
	<path d="M467.326,1032.325c0,0,40.202,1.739,64.919,1.315c4.228,0.291,7.143-1.324,5.854,9.492c-0.102,1-4.804,33.694-4.839,36.244   c-0.171,10.347-5.399,14.039-8.863,13.937c-66.752,0.874-68.156,1.582-70.036-1.758c-3.212-6.979,4.457-20.883,3.888-33.764   c-0.758-6.232,2.887-11.672,5.21-17.153C464.71,1037.892,464.846,1034.276,467.326,1032.325z"/>
	<path d="M2500.58,1035.82c3.145,0.164,23.668-1.157,29.175-0.665c2.516,1.122,3.338,4.167,4.331,6.54   c0.894,0.257,1.801,0.508,2.773,0.779c-0.093,3.13,1.858,5.675,2.838,8.484c-0.508,3.023,1.415,5.561,2.566,8.198   c1.165,2.273,1.729,5.246,4.281,6.447c15.093,7.675,33.681,16.157,37.552,19.212c0.072,1.751-1.129,2.909-2.43,3.881   c0.636,1.615,1.086,3.302,1.251,5.06c-3.059,0.114-6.275-1.215-9.134,0.336c-2.912,1.375-16.069,4.394-19.848,6.49   c-4.293,2.395-23.826,7.152-26.767,8.248c-8.953,3.416-18.225-8.604-31.719-13.051c1.179,3.509,5.025,4.681,7.719,6.776   c2.766,1.236,3.931,4.095,5.382,6.554c-2.151,1.322-3.824,3.323-6.118,4.388c-4.253,1.346-48.89,9.741-60.094,13.251   c-3.338,1.015-7.304-1.029-10.142,1.479c-2.623,1.894-5.896,2.266-8.891,3.231c-5.396,1.515-10.342,4.317-15.781,5.646   c-8.541,1.401-25.086,8.326-40.575,12.929c-10.571,2.216-5.3,1.526-27.881-14.173c-19.573-13.952-21.808-17.227-21.914-21.499   c2.787-2.594,6.868-2.173,10.149-3.824c7.486-2.365,50.346-14.857,59.315-19.719c-0.15-1.036,0.093-2.287-0.972-2.845   c-6.014-4.681-5.469,0.592-21.442-21.563c-2.802-3.938-7.155-7.19-7.762-12.301c-0.851-2.18,1.015-4.381,3.109-4.824   c2.931-0.824,67.745-4.403,79.549-4.288c7.078,0.708,8.876,13.524,19.412,22.135c3.038,2.459,5.932,5.125,9.149,7.369   c1.344,1.194,3.745-0.493,3.316-2.173C2455.735,1027.674,2447.462,1036.926,2500.58,1035.82z"/>
	<path d="M2118.566,1041.995c4.179,0.903,78.014,22.849,91.049,26.795c2.344,0.686,4.732,2.78,4.203,5.475   c-0.136,3.845-4.524,5.146-5.568,8.605c5.604,0.485,11.517-7.649,16.36-5.696c7.955,2.535,16.76,10.654,26.731,13.058   c-0.786-2.23-3.03-3.424-4.024-5.518c-1.537-1.894-1.379-5.596,1.272-6.39c4.953-1.515,9.585-3.91,14.495-5.568   c11.958-5.26,24.558-8.791,36.73-13.466c4.559-1.352,8.373,7.239,48.187,31.191c1.78,1.029,2.587,3.002,3.667,4.667   c-1.722,3.466-5.21,5.882-8.991,6.525c-6.097,1.301-11.986,3.374-18.032,4.817c-5.01,1.537-9.649,4.152-14.831,5.139   c-6.104,1.208-11.807,4.024-17.997,4.782c-0.715,2.866-3.48,4.124-6.054,4.867c-3.678,1.904-16.881,9.742-19.533,13.194   c-0.851,1.215-2.33,1.608-3.581,2.216c-7.163,2.453-22.508,13.926-25.63,15.796c-2.266,1.379-4.796,2.259-6.954,3.802   c-2.094,1.294-4.76,2.659-7.162,1.365c-44.336-26.039-63.275-30.785-63.132-39.424c2.066-2.28,4.839-3.838,6.769-6.261   c0.064-0.901-0.129-1.787-0.186-2.645c-43.994-16.02-82.049-24.657-85.903-29.454c-0.46-3.36,0.778-4.596,25.108-29.504   C2111.936,1043.384,2115.507,1041.207,2118.566,1041.995z"/>
	<path d="M1604.785,1081.698c3.999,0.97,38.815,27.13,44.12,29.625c1.973,1.508,5.439,2.273,5.461,5.26   c0.643,2.166-1.193,3.874-2.344,5.482c-1.665,2.287-4.603,2.694-7.026,3.724c-2.144,0.808-2.952,3.345-5.053,4.203   c-8.375,3.519-30.347,19.544-37.309,17.582c-5.926-1.3-23.894-14.857-27.41-17.596c-1.07-0.648-15.93-10.445-22.364-15.688   c-0.029-0.879-0.036-1.737-0.021-2.587c5.807-4.658,27.503-17.481,29.125-18.161   C1593.756,1087.99,1600.599,1080.354,1604.785,1081.698z"/>
	<path d="M1354.931,1119.957c12.304-1.448,29.746,0.79,40.697,0.179c2.764-0.035,10.507-2.078,9.613,6.29   c0.593,8.42-1.437,16.753-1.086,25.18c-0.982,25.769,2.944,23.675-13.551,24.315c-1.002-0.025-42.368,0.718-47.058,2.923   c-1.094,1.873-0.908,4.274-1.444,6.368c-0.8,5.989-3.459,11.55-4.038,17.575c-3.104,9.571-5.343,28.151-9.756,35.179   c-1.482,3.007-49.574-1.764-50.574-1.78c-4.689-0.214-9.477,0.565-14.08-0.572c-2.073-1.122-4.574-3.266-3.545-5.896   c0.267-1,10.382-46.166,12.35-51.182c2.716-4.404,6.559-3.519,41.683-1.115c3.431,0.25,7.183,1.244,10.414-0.422   c1.451-0.708,1.194-2.609,1.408-3.945c0-0.01,1.064-27.424,1.043-30.748c0.027-3.863-0.048-20.325,3.852-21.249   C1338.401,1118.781,1350.178,1120.373,1354.931,1119.957z"/>
	<path d="M809.116,1216.166c2.534-0.859,81.272,5.985,83.952,6.297c1.408,0.157,2.737,1.022,3.352,2.344   c0.472,3.545-0.093,7.24-1.844,10.392c-17.758,45.909-8.056,37.319-31.405,36.551c-3.474,0.01-37.222-3.186-41.947-3.781   c-20.983-2.214-34.081,0.976-28.975-11.471c2.43-4.581,3.559-9.67,5.582-14.409c1.544-5.947,4.367-11.428,6.454-17.175   C805.792,1221.977,806.621,1218.439,809.116,1216.166z"/>
	<path d="M2174.229,1224.743c7.173-2.303,8.508,1.609,40.511,23.322c2.737,1.758,5.982,3.095,7.876,5.875   c1.746,7.487-10.678,9.31-17.061,15.073c-4.646,1.687-8.998,4.117-13.322,6.518c-30.686,15.191-15.555,18.626-59.237-12.193   c-1-0.754-10.812-7.405-8.441-10.778c4.315-5.502,20.92-11.93,27.11-15.996C2159.069,1232.405,2166.695,1228.667,2174.229,1224.743   z"/>
	<path d="M1873.315,1239.109c8.055-2.051,16.046,1.536,23.965,2.673c2.814,0.566,39.382,8.734,41.283,10.885   c0.486,3.009,1.115,6.583-1.072,9.106c-2.516,3.066-3.845,6.94-6.754,9.692c-2.459,3.059-4.388,6.526-7.083,9.413   c-2.602,4.874-7.062,8.391-9.656,13.265c-5.263,6.569-5.553,8.07-19.483,3.917c-6.826-1.973-13.93-2.687-20.734-4.717   c-11.492-2.879-14.7-4.511-18.418,0.643c-1.004,1.354-20.58,20.305-22.114,21.52c-3.609,2.673-9.029,10.723-13.415,11.486   c-3.702,0.75-7.019-1.451-10.442-2.373c-0.909-0.251-33.92-11.333-35.236-11.893c-5.753-2.452-15.573-2.221-16.689-8.405   c-1.225-3.748,8.288-10.037,17.418-19.312c19.178-17.033,10.731-18.445,49.945-5.839c15.047,5.472,14.936,4.111,43.498-34.314   C1869.912,1242.897,1870.713,1239.995,1873.315,1239.109z"/>
</g>
</svg>